<svg width="256" height="256" viewBox="0 0 256 256" fill="none" xmlns="http://www.w3.org/2000/svg">
<rect width="256" height="256" rx="11" fill="url(#paint0_linear)"/>
<path d="M21.5 70.5V25.5H117.5V70.5H21.5Z" stroke="white" stroke-width="3"/>
<line x1="20" y1="82.5" x2="92" y2="82.5" stroke="white" stroke-width="3"/>
<line x1="20" y1="93.5" x2="119" y2="93.5" stroke="white" stroke-width="3"/>
<line x1="20" y1="101.5" x2="119" y2="101.5" stroke="white" stroke-width="3"/>
<line x1="20" y1="109.5" x2="119" y2="109.5" stroke="white" stroke-width="3"/>
<path d="M21.5 187.5V142.5H117.5V187.5H21.5Z" stroke="white" stroke-width="3"/>
<line x1="20" y1="199.5" x2="92" y2="199.5" stroke="white" stroke-width="3"/>
<line x1="20" y1="210.5" x2="119" y2="210.5" stroke="white" stroke-width="3"/>
<line x1="20" y1="218.5" x2="119" y2="218.5" stroke="white" stroke-width="3"/>
<line x1="20" y1="226.5" x2="119" y2="226.5" stroke="white" stroke-width="3"/>
<path d="M138.5 70.5V25.5H234.5V70.5H138.5Z" stroke="white" stroke-width="3"/>
<line x1="137" y1="82.5" x2="209" y2="82.5" stroke="white" stroke-width="3"/>
<line x1="137" y1="93.5" x2="236" y2="93.5" stroke="white" stroke-width="3"/>
<line x1="137" y1="101.5" x2="236" y2="101.5" stroke="white" stroke-width="3"/>
<line x1="137" y1="109.5" x2="236" y2="109.5" stroke="white" stroke-width="3"/>
<path d="M138.5 187.5V142.5H234.5V187.5H138.5Z" stroke="white" stroke-width="3"/>
<line x1="137" y1="199.5" x2="209" y2="199.5" stroke="white" stroke-width="3"/>
<line x1="137" y1="210.5" x2="236" y2="210.5" stroke="white" stroke-width="3"/>
<line x1="137" y1="218.5" x2="236" y2="218.5" stroke="white" stroke-width="3"/>
<line x1="137" y1="226.5" x2="236" y2="226.5" stroke="white" stroke-width="3"/>
<defs>
<linearGradient id="paint0_linear" x1="262" y1="261.5" x2="-6" y2="-17" gradientUnits="userSpaceOnUse">
<stop offset="0.108445" stop-color="#3F2C73"/>
<stop offset="0.983344" stop-color="#E8345F"/>
</linearGradient>
</defs>
</svg>
